<?xml version="1.0" encoding="utf-8"?>
<!-- Generator: Adobe Illustrator 18.1.1, SVG Export Plug-In . SVG Version: 6.00 Build 0)  -->
<!DOCTYPE svg PUBLIC "-//W3C//DTD SVG 1.1//EN" "http://www.w3.org/Graphics/SVG/1.1/DTD/svg11.dtd">
<svg version="1.1" id="Layer_1" xmlns="http://www.w3.org/2000/svg" xmlns:xlink="http://www.w3.org/1999/xlink" x="0px" y="0px"
	 width="1364px" height="2048px" viewBox="666.1 -628 1364 2048" enable-background="new 666.1 -628 1364 2048"
	 xml:space="preserve">
<path d="M1933.4-78.2c-64.4-62.9-153.5-94.4-267.2-94.4c-31.5,0-63.6,5.5-96.3,16.4c-32.7,10.9-63.2,25.6-91.3,44.2
	c-28.2,18.5-52.4,35.9-72.7,52.1c-20.3,16.2-39.6,33.5-57.8,51.8c-18.3-18.3-37.6-35.5-57.8-51.8c-20.3-16.2-44.5-33.6-72.7-52.1
	s-58.6-33.2-91.3-44.2c-32.7-10.9-64.8-16.4-96.3-16.4c-113.7,0-202.7,31.5-267.2,94.4S666.1,72,666.1,183.7c0,34,6,69,17.9,105
	c11.9,36,25.5,66.7,40.7,92.1c15.2,25.4,32.5,50.1,51.8,74.2s33.4,40.7,42.2,49.9c8.9,9.1,15.9,15.7,20.9,19.8l475,458.2
	c9.1,9.1,20.3,13.7,33.5,13.7s24.4-4.6,33.5-13.7l474.2-456.7C1972,410,2030.1,295.8,2030.1,183.7
	C2030.1,72,1997.9-15.3,1933.4-78.2z"/>
</svg>
