<?xml version="1.0" encoding="utf-8"?>
<!-- Generator: Adobe Illustrator 18.1.1, SVG Export Plug-In . SVG Version: 6.00 Build 0)  -->
<!DOCTYPE svg PUBLIC "-//W3C//DTD SVG 1.1//EN" "http://www.w3.org/Graphics/SVG/1.1/DTD/svg11.dtd">
<svg version="1.1" id="Layer_1" xmlns="http://www.w3.org/2000/svg" xmlns:xlink="http://www.w3.org/1999/xlink" x="0px" y="0px"
	 width="1566.8px" height="2048px" viewBox="499.9 -628 1566.8 2048" enable-background="new 499.9 -628 1566.8 2048"
	 xml:space="preserve">
<path d="M1961.6,23.7c-70.1-120-165.1-215.1-285.1-285.1c-120.1-70.1-251.1-105.1-393.3-105.1c-142.2,0-273.3,35-393.3,105.1
	c-120.1,70-215.1,165.1-285.2,285.1C534.7,143.8,499.6,274.9,499.6,417c0,142.2,35,273.2,105.1,393.3
	c70.1,120,165.1,215.1,285.2,285.1c120.1,70.1,251.1,105.1,393.3,105.1s273.3-35,393.3-105.1c120-70,215.1-165.1,285.1-285.1
	c70-120.1,105.1-251.2,105.1-393.3C2066.7,274.9,2031.7,143.8,1961.6,23.7z M1740.2,482.3c0,17.7-6.5,33-19.4,45.9
	c-12.9,12.9-28.2,19.4-45.9,19.4h-261.2v261.2c0,17.7-6.5,33-19.4,45.9c-12.9,12.9-28.2,19.4-45.9,19.4h-130.6
	c-17.7,0-33-6.5-45.9-19.4c-12.9-12.9-19.4-28.2-19.4-45.9V547.6H891.4c-17.7,0-33-6.5-45.9-19.4c-12.9-12.9-19.4-28.2-19.4-45.9
	V351.7c0-17.7,6.5-33,19.4-45.9c12.9-12.9,28.2-19.4,45.9-19.4h261.2V25.3c0-17.7,6.5-33,19.4-45.9s28.2-19.4,45.9-19.4h130.6
	c17.7,0,33,6.5,45.9,19.4c12.9,12.9,19.4,28.2,19.4,45.9v261.2H1675c17.7,0,33,6.5,45.9,19.4c12.9,12.9,19.4,28.2,19.4,45.9V482.3z"
	/>
</svg>
