<?xml version="1.0" encoding="utf-8"?>
<!-- Generated by IcoMoon.io -->
<!DOCTYPE svg PUBLIC "-//W3C//DTD SVG 1.1//EN" "http://www.w3.org/Graphics/SVG/1.1/DTD/svg11.dtd">
<svg version="1.1" xmlns="http://www.w3.org/2000/svg" xmlns:xlink="http://www.w3.org/1999/xlink" width="254" height="448" viewBox="0 0 254 448">
<g id="icomoon-ignore">
</g>
<path d="M219.293 280.766q0 30.053-19.545 51.758t-50.776 26.813v34.373q0 2.751-1.769 4.517t-4.517 1.769h-26.518q-2.554 0-4.421-1.865t-1.865-4.421v-34.373q-12.964-1.769-25.045-6.091t-19.937-8.743-14.536-9.429-9.133-7.366-3.439-3.535q-3.339-4.126-0.393-8.054l20.232-26.518q1.375-1.965 4.517-2.356 2.947-0.393 4.715 1.769l0.393 0.393q22.197 19.445 47.733 24.554 7.269 1.572 14.536 1.572 15.911 0 27.992-8.446t12.081-23.964q0-5.499-2.947-10.412t-6.582-8.252-11.49-7.366-12.964-6.286-15.715-6.384q-7.66-3.143-12.081-4.912t-12.081-5.205-12.277-6.091-11.099-6.973-10.509-8.348-8.545-9.625-6.973-11.394-4.126-13.063-1.669-15.32q0-27.106 19.25-47.536t50.089-26.322v-35.357q0-2.554 1.866-4.421t4.421-1.865h26.518q2.751 0 4.517 1.769t1.769 4.517v34.57q11.197 1.179 21.706 4.517t17.089 6.582 12.473 7.366 7.66 5.696 2.947 2.751q3.339 3.535 0.982 7.464l-15.911 28.679q-1.572 2.947-4.517 3.143-2.751 0.59-5.304-1.375-0.59-0.59-2.848-2.356t-7.66-5.205-11.49-6.286-14.632-5.108-16.793-2.26q-18.66 0-30.446 8.446t-11.786 21.803q0 5.108 1.669 9.429t5.795 8.151 7.76 6.482 11 6.091 11.884 5.304 13.75 5.403q10.413 3.93 15.911 6.187t14.929 6.875 14.829 8.348 12.178 9.821 10.412 12.473 6.187 15.027 2.554 18.463z"></path>
</svg>
