<?xml version="1.0" encoding="utf-8"?>
<!-- Generator: Adobe Illustrator 18.1.1, SVG Export Plug-In . SVG Version: 6.00 Build 0)  -->
<!DOCTYPE svg PUBLIC "-//W3C//DTD SVG 1.1//EN" "http://www.w3.org/Graphics/SVG/1.1/DTD/svg11.dtd">
<svg version="1.1" id="Layer_1" xmlns="http://www.w3.org/2000/svg" xmlns:xlink="http://www.w3.org/1999/xlink" x="0px" y="0px"
	 width="1521.5px" height="2048px" viewBox="669.9 -628 1521.5 2048" enable-background="new 669.9 -628 1521.5 2048"
	 xml:space="preserve">
<path d="M2163.8-7.1l-133.7-133.7c-18.3-18.3-40.6-27.5-66.8-27.5c-26.2,0-48.5,9.2-66.8,27.5l-644.7,645.7L962.9,215
	c-18.3-18.3-40.6-27.5-66.8-27.5c-26.2,0-48.5,9.2-66.8,27.5L695.6,348.6C677.2,367,668,389.2,668,415.5c0,26.2,9.2,48.5,27.5,66.8
	L1051.3,838L1185,971.7c18.3,18.3,40.6,27.5,66.8,27.5c26.2,0,48.5-9.2,66.8-27.5L1452.3,838l711.5-711.5
	c18.3-18.3,27.5-40.6,27.5-66.8C2191.4,33.5,2182.2,11.2,2163.8-7.1z"/>
</svg>
